<?xml version="1.0" encoding="utf-8"?>
<!-- Generator: Adobe Illustrator 16.0.0, SVG Export Plug-In . SVG Version: 6.00 Build 0)  -->
<!DOCTYPE svg PUBLIC "-//W3C//DTD SVG 1.1//EN" "http://www.w3.org/Graphics/SVG/1.1/DTD/svg11.dtd">
<svg version="1.1" id="Layer_1" xmlns="http://www.w3.org/2000/svg" xmlns:xlink="http://www.w3.org/1999/xlink" x="0px" y="0px"
	 width="140px" height="192.868px" viewBox="0 0 140 192.868" enable-background="new 0 0 140 192.868" xml:space="preserve">
<g>
	<path fill="#754C24" d="M46.149,103.877c2.675-1.956,10.874-8.18,15.067-11.369L42.995,73.319L25.564,90.75
		c0,0-9.96,8.964-15.106,14.276c-5.146,5.313-10.691,8.466-9.496,11.455c0.828,2.068,5.138,7.634,8.814,11.526
		c4.667-1.507,10.015-4.112,13.962-6.547C31.541,116.646,42.497,106.546,46.149,103.877z"/>
	<path fill="#A67C52" d="M13.944,131.752c3.32,1.992,6.142,4.15,8.964,1.328c2.822-2.822,38.845-40.007,38.845-40.007l-0.537-0.565
		c-4.194,3.189-12.392,9.413-15.067,11.369c-3.652,2.669-14.608,12.769-22.411,17.583c-3.947,2.435-9.295,5.04-13.962,6.547
		C11.412,129.738,12.922,131.14,13.944,131.752z"/>
	<linearGradient id="SVGID_1_" gradientUnits="userSpaceOnUse" x1="21.4551" y1="59.6616" x2="139.3921" y2="59.6616">
		<stop  offset="0" style="stop-color:#F7931E"/>
		<stop  offset="1" style="stop-color:#F15A24"/>
	</linearGradient>
	<path fill="url(#SVGID_1_)" d="M103.466,79.56c11.37-10.315,24.952-15.365,35.926-14.418c-0.386-1.025-0.964-2.057-1.775-3.11
		c-4.979-6.474-52.244-52.306-52.244-52.306S74.535-1.216,68.394,0.112C62.251,1.44,48.805,6.254,39.011,17.874
		c-9.794,11.62-16.102,19.09-17.43,27.557s8.3,18.094,10.292,20.418s28.885,32.04,33.533,36.687
		c4.29,4.29,15.366,14.235,20.703,16.787C83.743,107.398,90.168,91.624,103.466,79.56z"/>
	<path fill="#D85027" d="M108.068,110.836c5.811-4.482,21.581-19.754,26.229-28.221c3.892-7.088,7.082-12.199,5.095-17.474
		c-10.975-0.947-24.556,4.104-35.926,14.418c-13.298,12.064-19.723,27.839-17.358,39.764c0.446,0.213,0.852,0.375,1.21,0.477
		C91.966,121.128,102.259,115.318,108.068,110.836z"/>
	<path fill="#A67C52" d="M121.349,34.973c0,0,2.324-5.198,0-10.733c-2.324-5.535-7.47-8.191-11.454-10.515
		c0,0-4.961-1.96-8.535-2.613c-0.521,1.665-0.927,3.231-0.927,4.065c0,2.324,5.787,7.44,7.625,9.042
		c1.838,1.602,2.336,5.265,3.664,7.589c0.671,1.175,2.997,3.624,5.134,5.758c0.185-0.015,0.356-0.049,0.51-0.104
		C119.688,36.632,121.349,34.973,121.349,34.973z"/>
	<path fill="#754C24" d="M111.721,31.808c-1.328-2.324-1.826-5.987-3.664-7.589c-1.837-1.603-7.625-6.718-7.625-9.042
		c0-0.834,0.406-2.4,0.927-4.065c-0.713-0.13-1.371-0.209-1.923-0.209c-3.32,0-2.49,0.664-4.316,2.822s-1.494,4.482-0.996,5.976
		c0.498,1.494,4.813,5.81,9.794,10.292c4.651,4.186,10.314,7.792,12.936,7.574C114.718,35.431,112.392,32.982,111.721,31.808z"/>
	<path fill="#754C24" d="M1.167,128.957C0.437,128.42,0,128.1,0,128.1C0.278,128.482,0.675,128.764,1.167,128.957z"/>
</g>
<ellipse fill="#333333" cx="70.464" cy="188.378" rx="38.149" ry="4.489"/>
</svg>
